<mxfile host="app.diagrams.net" agent="Mozilla/5.0 (X11; Linux x86_64) AppleWebKit/537.36 (KHTML, like Gecko) Chrome/125.0.0.0 Safari/537.36" version="24.7.7">
  <diagram name="Page-1" id="hqRqsJEODYzrjT2BxPNw">
    <mxGraphModel dx="1378" dy="759" grid="1" gridSize="10" guides="1" tooltips="1" connect="1" arrows="1" fold="1" page="1" pageScale="1" pageWidth="850" pageHeight="1100" math="0" shadow="0">
      <root>
        <mxCell id="0" />
        <mxCell id="1" parent="0" />
        <mxCell id="8me5OHyM-P-EAsXOWn_f-1" value="Main Account (&lt;span style=&quot;color: rgb(42, 57, 71); font-family: &amp;quot;Source Sans 3&amp;quot;, -apple-system, BlinkMacSystemFont, &amp;quot;Segoe UI&amp;quot;, Helvetica, Arial, sans-serif, &amp;quot;Apple Color Emoji&amp;quot;, &amp;quot;Segoe UI Emoji&amp;quot;, &amp;quot;Segoe UI Symbol&amp;quot;; text-wrap: nowrap; background-color: rgb(240, 242, 244);&quot;&gt;&lt;font style=&quot;font-size: 12px;&quot;&gt;179924010320&lt;/font&gt;&lt;/span&gt;)&amp;nbsp;" style="points=[[0,0],[0.25,0],[0.5,0],[0.75,0],[1,0],[1,0.25],[1,0.5],[1,0.75],[1,1],[0.75,1],[0.5,1],[0.25,1],[0,1],[0,0.75],[0,0.5],[0,0.25]];outlineConnect=0;gradientColor=none;html=1;whiteSpace=wrap;fontSize=12;fontStyle=0;container=1;pointerEvents=0;collapsible=0;recursiveResize=0;shape=mxgraph.aws4.group;grIcon=mxgraph.aws4.group_account;strokeColor=#CD2264;fillColor=none;verticalAlign=top;align=left;spacingLeft=30;fontColor=#CD2264;dashed=0;" vertex="1" parent="1">
          <mxGeometry x="371" y="110" width="280" height="250" as="geometry" />
        </mxCell>
        <mxCell id="8me5OHyM-P-EAsXOWn_f-2" value="Route 53&lt;div&gt;&lt;br&gt;&lt;/div&gt;" style="sketch=0;points=[[0,0,0],[0.25,0,0],[0.5,0,0],[0.75,0,0],[1,0,0],[0,1,0],[0.25,1,0],[0.5,1,0],[0.75,1,0],[1,1,0],[0,0.25,0],[0,0.5,0],[0,0.75,0],[1,0.25,0],[1,0.5,0],[1,0.75,0]];outlineConnect=0;fontColor=#232F3E;fillColor=#8C4FFF;strokeColor=#ffffff;dashed=0;verticalLabelPosition=bottom;verticalAlign=top;align=center;html=1;fontSize=12;fontStyle=0;aspect=fixed;shape=mxgraph.aws4.resourceIcon;resIcon=mxgraph.aws4.route_53;" vertex="1" parent="8me5OHyM-P-EAsXOWn_f-1">
          <mxGeometry x="103" y="86" width="78" height="78" as="geometry" />
        </mxCell>
        <mxCell id="8me5OHyM-P-EAsXOWn_f-3" value="Dev Account (479969404437)&amp;nbsp;" style="points=[[0,0],[0.25,0],[0.5,0],[0.75,0],[1,0],[1,0.25],[1,0.5],[1,0.75],[1,1],[0.75,1],[0.5,1],[0.25,1],[0,1],[0,0.75],[0,0.5],[0,0.25]];outlineConnect=0;gradientColor=none;html=1;whiteSpace=wrap;fontSize=12;fontStyle=0;container=1;pointerEvents=0;collapsible=0;recursiveResize=0;shape=mxgraph.aws4.group;grIcon=mxgraph.aws4.group_account;strokeColor=#CD2264;fillColor=none;verticalAlign=top;align=left;spacingLeft=30;fontColor=#CD2264;dashed=0;" vertex="1" parent="1">
          <mxGeometry x="60" y="430" width="900" height="700" as="geometry" />
        </mxCell>
        <mxCell id="8me5OHyM-P-EAsXOWn_f-4" value="VPC" style="points=[[0,0],[0.25,0],[0.5,0],[0.75,0],[1,0],[1,0.25],[1,0.5],[1,0.75],[1,1],[0.75,1],[0.5,1],[0.25,1],[0,1],[0,0.75],[0,0.5],[0,0.25]];outlineConnect=0;gradientColor=none;html=1;whiteSpace=wrap;fontSize=12;fontStyle=0;container=1;pointerEvents=0;collapsible=0;recursiveResize=0;shape=mxgraph.aws4.group;grIcon=mxgraph.aws4.group_vpc2;strokeColor=#8C4FFF;fillColor=none;verticalAlign=top;align=left;spacingLeft=30;fontColor=#09ddec;dashed=0;" vertex="1" parent="8me5OHyM-P-EAsXOWn_f-3">
          <mxGeometry x="70" y="60" width="750" height="600" as="geometry" />
        </mxCell>
        <mxCell id="8me5OHyM-P-EAsXOWn_f-5" value="Region us-east-1&lt;div&gt;&lt;br&gt;&lt;/div&gt;" style="points=[[0,0],[0.25,0],[0.5,0],[0.75,0],[1,0],[1,0.25],[1,0.5],[1,0.75],[1,1],[0.75,1],[0.5,1],[0.25,1],[0,1],[0,0.75],[0,0.5],[0,0.25]];outlineConnect=0;gradientColor=none;html=1;whiteSpace=wrap;fontSize=12;fontStyle=0;container=1;pointerEvents=0;collapsible=0;recursiveResize=0;shape=mxgraph.aws4.group;grIcon=mxgraph.aws4.group_region;strokeColor=#00A4A6;fillColor=none;verticalAlign=top;align=left;spacingLeft=30;fontColor=#147EBA;dashed=1;" vertex="1" parent="8me5OHyM-P-EAsXOWn_f-3">
          <mxGeometry x="20" y="30" width="860" height="650" as="geometry" />
        </mxCell>
        <mxCell id="8me5OHyM-P-EAsXOWn_f-6" value="Availability zone A" style="sketch=0;outlineConnect=0;gradientColor=none;html=1;whiteSpace=wrap;fontSize=12;fontStyle=0;shape=mxgraph.aws4.group;grIcon=mxgraph.aws4.group_availability_zone;strokeColor=#545B64;fillColor=none;verticalAlign=top;align=left;spacingLeft=30;fontColor=#545B64;dashed=1;" vertex="1" parent="8me5OHyM-P-EAsXOWn_f-5">
          <mxGeometry x="20" y="70" width="820" height="250" as="geometry" />
        </mxCell>
        <mxCell id="8me5OHyM-P-EAsXOWn_f-7" value="Public subnet" style="points=[[0,0],[0.25,0],[0.5,0],[0.75,0],[1,0],[1,0.25],[1,0.5],[1,0.75],[1,1],[0.75,1],[0.5,1],[0.25,1],[0,1],[0,0.75],[0,0.5],[0,0.25]];outlineConnect=0;gradientColor=none;html=1;whiteSpace=wrap;fontSize=12;fontStyle=0;container=1;pointerEvents=0;collapsible=0;recursiveResize=0;shape=mxgraph.aws4.group;grIcon=mxgraph.aws4.group_security_group;grStroke=0;strokeColor=#7AA116;fillColor=#F2F6E8;verticalAlign=top;align=left;spacingLeft=30;fontColor=#248814;dashed=0;" vertex="1" parent="8me5OHyM-P-EAsXOWn_f-5">
          <mxGeometry x="82" y="100" width="200" height="200" as="geometry" />
        </mxCell>
        <mxCell id="8me5OHyM-P-EAsXOWn_f-8" value="Private subnet" style="points=[[0,0],[0.25,0],[0.5,0],[0.75,0],[1,0],[1,0.25],[1,0.5],[1,0.75],[1,1],[0.75,1],[0.5,1],[0.25,1],[0,1],[0,0.75],[0,0.5],[0,0.25]];outlineConnect=0;gradientColor=none;html=1;whiteSpace=wrap;fontSize=12;fontStyle=0;container=1;pointerEvents=0;collapsible=0;recursiveResize=0;shape=mxgraph.aws4.group;grIcon=mxgraph.aws4.group_security_group;grStroke=0;strokeColor=#00A4A6;fillColor=#E6F6F7;verticalAlign=top;align=left;spacingLeft=30;fontColor=#147EBA;dashed=0;" vertex="1" parent="8me5OHyM-P-EAsXOWn_f-5">
          <mxGeometry x="322" y="100" width="200" height="200" as="geometry" />
        </mxCell>
        <mxCell id="8me5OHyM-P-EAsXOWn_f-9" value="ECS Services&lt;div&gt;&lt;br&gt;&lt;/div&gt;" style="sketch=0;points=[[0,0,0],[0.25,0,0],[0.5,0,0],[0.75,0,0],[1,0,0],[0,1,0],[0.25,1,0],[0.5,1,0],[0.75,1,0],[1,1,0],[0,0.25,0],[0,0.5,0],[0,0.75,0],[1,0.25,0],[1,0.5,0],[1,0.75,0]];outlineConnect=0;fontColor=#232F3E;fillColor=#ED7100;strokeColor=#ffffff;dashed=0;verticalLabelPosition=bottom;verticalAlign=top;align=center;html=1;fontSize=12;fontStyle=0;aspect=fixed;shape=mxgraph.aws4.resourceIcon;resIcon=mxgraph.aws4.ecs;" vertex="1" parent="8me5OHyM-P-EAsXOWn_f-8">
          <mxGeometry x="63" y="58" width="74" height="74" as="geometry" />
        </mxCell>
        <mxCell id="8me5OHyM-P-EAsXOWn_f-10" value="Database Private subnet" style="points=[[0,0],[0.25,0],[0.5,0],[0.75,0],[1,0],[1,0.25],[1,0.5],[1,0.75],[1,1],[0.75,1],[0.5,1],[0.25,1],[0,1],[0,0.75],[0,0.5],[0,0.25]];outlineConnect=0;gradientColor=none;html=1;whiteSpace=wrap;fontSize=12;fontStyle=0;container=1;pointerEvents=0;collapsible=0;recursiveResize=0;shape=mxgraph.aws4.group;grIcon=mxgraph.aws4.group_security_group;grStroke=0;strokeColor=#00A4A6;fillColor=#E6F6F7;verticalAlign=top;align=left;spacingLeft=30;fontColor=#147EBA;dashed=0;" vertex="1" parent="8me5OHyM-P-EAsXOWn_f-5">
          <mxGeometry x="562" y="100" width="200" height="200" as="geometry" />
        </mxCell>
        <mxCell id="8me5OHyM-P-EAsXOWn_f-11" value="" style="sketch=0;outlineConnect=0;fontColor=#232F3E;gradientColor=none;fillColor=#C925D1;strokeColor=none;dashed=0;verticalLabelPosition=bottom;verticalAlign=top;align=center;html=1;fontSize=12;fontStyle=0;aspect=fixed;pointerEvents=1;shape=mxgraph.aws4.rds_instance;" vertex="1" parent="8me5OHyM-P-EAsXOWn_f-10">
          <mxGeometry x="59" y="56" width="78" height="78" as="geometry" />
        </mxCell>
        <mxCell id="8me5OHyM-P-EAsXOWn_f-12" style="edgeStyle=orthogonalEdgeStyle;rounded=0;orthogonalLoop=1;jettySize=auto;html=1;" edge="1" parent="8me5OHyM-P-EAsXOWn_f-5" source="8me5OHyM-P-EAsXOWn_f-13" target="8me5OHyM-P-EAsXOWn_f-9">
          <mxGeometry relative="1" as="geometry" />
        </mxCell>
        <mxCell id="8me5OHyM-P-EAsXOWn_f-13" value="Application Load Balancer&lt;div&gt;&lt;br&gt;&lt;/div&gt;" style="sketch=0;outlineConnect=0;fontColor=#232F3E;gradientColor=none;fillColor=#8C4FFF;strokeColor=none;dashed=0;verticalLabelPosition=bottom;verticalAlign=top;align=center;html=1;fontSize=12;fontStyle=0;aspect=fixed;pointerEvents=1;shape=mxgraph.aws4.application_load_balancer;" vertex="1" parent="8me5OHyM-P-EAsXOWn_f-5">
          <mxGeometry x="143" y="156" width="78" height="78" as="geometry" />
        </mxCell>
        <mxCell id="8me5OHyM-P-EAsXOWn_f-14" style="edgeStyle=orthogonalEdgeStyle;rounded=0;orthogonalLoop=1;jettySize=auto;html=1;" edge="1" parent="8me5OHyM-P-EAsXOWn_f-5" source="8me5OHyM-P-EAsXOWn_f-9" target="8me5OHyM-P-EAsXOWn_f-11">
          <mxGeometry relative="1" as="geometry" />
        </mxCell>
        <mxCell id="8me5OHyM-P-EAsXOWn_f-15" value="Availability zone B&lt;div&gt;&lt;br&gt;&lt;/div&gt;" style="sketch=0;outlineConnect=0;gradientColor=none;html=1;whiteSpace=wrap;fontSize=12;fontStyle=0;shape=mxgraph.aws4.group;grIcon=mxgraph.aws4.group_availability_zone;strokeColor=#545B64;fillColor=none;verticalAlign=top;align=left;spacingLeft=30;fontColor=#545B64;dashed=1;" vertex="1" parent="8me5OHyM-P-EAsXOWn_f-3">
          <mxGeometry x="40" y="390" width="820" height="250" as="geometry" />
        </mxCell>
        <mxCell id="8me5OHyM-P-EAsXOWn_f-16" value="Public subnet" style="points=[[0,0],[0.25,0],[0.5,0],[0.75,0],[1,0],[1,0.25],[1,0.5],[1,0.75],[1,1],[0.75,1],[0.5,1],[0.25,1],[0,1],[0,0.75],[0,0.5],[0,0.25]];outlineConnect=0;gradientColor=none;html=1;whiteSpace=wrap;fontSize=12;fontStyle=0;container=1;pointerEvents=0;collapsible=0;recursiveResize=0;shape=mxgraph.aws4.group;grIcon=mxgraph.aws4.group_security_group;grStroke=0;strokeColor=#7AA116;fillColor=#F2F6E8;verticalAlign=top;align=left;spacingLeft=30;fontColor=#248814;dashed=0;" vertex="1" parent="8me5OHyM-P-EAsXOWn_f-3">
          <mxGeometry x="100" y="420" width="200" height="200" as="geometry" />
        </mxCell>
        <mxCell id="8me5OHyM-P-EAsXOWn_f-17" value="App Private subnet" style="points=[[0,0],[0.25,0],[0.5,0],[0.75,0],[1,0],[1,0.25],[1,0.5],[1,0.75],[1,1],[0.75,1],[0.5,1],[0.25,1],[0,1],[0,0.75],[0,0.5],[0,0.25]];outlineConnect=0;gradientColor=none;html=1;whiteSpace=wrap;fontSize=12;fontStyle=0;container=1;pointerEvents=0;collapsible=0;recursiveResize=0;shape=mxgraph.aws4.group;grIcon=mxgraph.aws4.group_security_group;grStroke=0;strokeColor=#00A4A6;fillColor=#E6F6F7;verticalAlign=top;align=left;spacingLeft=30;fontColor=#147EBA;dashed=0;" vertex="1" parent="8me5OHyM-P-EAsXOWn_f-3">
          <mxGeometry x="340" y="420" width="200" height="200" as="geometry" />
        </mxCell>
        <mxCell id="8me5OHyM-P-EAsXOWn_f-18" value="ECS Services&lt;div&gt;&lt;br&gt;&lt;/div&gt;" style="sketch=0;points=[[0,0,0],[0.25,0,0],[0.5,0,0],[0.75,0,0],[1,0,0],[0,1,0],[0.25,1,0],[0.5,1,0],[0.75,1,0],[1,1,0],[0,0.25,0],[0,0.5,0],[0,0.75,0],[1,0.25,0],[1,0.5,0],[1,0.75,0]];outlineConnect=0;fontColor=#232F3E;fillColor=#ED7100;strokeColor=#ffffff;dashed=0;verticalLabelPosition=bottom;verticalAlign=top;align=center;html=1;fontSize=12;fontStyle=0;aspect=fixed;shape=mxgraph.aws4.resourceIcon;resIcon=mxgraph.aws4.ecs;" vertex="1" parent="8me5OHyM-P-EAsXOWn_f-17">
          <mxGeometry x="61" y="61" width="78" height="78" as="geometry" />
        </mxCell>
        <mxCell id="8me5OHyM-P-EAsXOWn_f-19" value="&lt;span style=&quot;color: rgb(20, 126, 186); font-family: Helvetica; font-size: 12px; font-style: normal; font-variant-ligatures: normal; font-variant-caps: normal; font-weight: 400; letter-spacing: normal; orphans: 2; text-align: left; text-indent: 0px; text-transform: none; widows: 2; word-spacing: 0px; -webkit-text-stroke-width: 0px; white-space: normal; text-decoration-thickness: initial; text-decoration-style: initial; text-decoration-color: initial; float: none; display: inline !important;&quot;&gt;Database Private subnet&lt;/span&gt;" style="points=[[0,0],[0.25,0],[0.5,0],[0.75,0],[1,0],[1,0.25],[1,0.5],[1,0.75],[1,1],[0.75,1],[0.5,1],[0.25,1],[0,1],[0,0.75],[0,0.5],[0,0.25]];outlineConnect=0;gradientColor=none;html=1;whiteSpace=wrap;fontSize=12;fontStyle=0;container=1;pointerEvents=0;collapsible=0;recursiveResize=0;shape=mxgraph.aws4.group;grIcon=mxgraph.aws4.group_security_group;grStroke=0;strokeColor=#00A4A6;fillColor=#E6F6F7;verticalAlign=top;align=left;spacingLeft=30;fontColor=#147EBA;dashed=0;labelBackgroundColor=none;" vertex="1" parent="8me5OHyM-P-EAsXOWn_f-3">
          <mxGeometry x="580" y="420" width="200" height="200" as="geometry" />
        </mxCell>
        <mxCell id="8me5OHyM-P-EAsXOWn_f-20" value="" style="sketch=0;outlineConnect=0;fontColor=#232F3E;gradientColor=none;fillColor=#C925D1;strokeColor=none;dashed=0;verticalLabelPosition=bottom;verticalAlign=top;align=center;html=1;fontSize=12;fontStyle=0;aspect=fixed;pointerEvents=1;shape=mxgraph.aws4.rds_instance;" vertex="1" parent="8me5OHyM-P-EAsXOWn_f-19">
          <mxGeometry x="63" y="61" width="78" height="78" as="geometry" />
        </mxCell>
        <mxCell id="8me5OHyM-P-EAsXOWn_f-21" style="edgeStyle=orthogonalEdgeStyle;rounded=0;orthogonalLoop=1;jettySize=auto;html=1;entryX=0;entryY=0.5;entryDx=0;entryDy=0;entryPerimeter=0;" edge="1" parent="8me5OHyM-P-EAsXOWn_f-3" source="8me5OHyM-P-EAsXOWn_f-13" target="8me5OHyM-P-EAsXOWn_f-18">
          <mxGeometry relative="1" as="geometry" />
        </mxCell>
        <mxCell id="8me5OHyM-P-EAsXOWn_f-22" style="edgeStyle=orthogonalEdgeStyle;rounded=0;orthogonalLoop=1;jettySize=auto;html=1;" edge="1" parent="8me5OHyM-P-EAsXOWn_f-3" source="8me5OHyM-P-EAsXOWn_f-24" target="8me5OHyM-P-EAsXOWn_f-20">
          <mxGeometry relative="1" as="geometry">
            <Array as="points">
              <mxPoint x="200" y="630" />
              <mxPoint x="682" y="630" />
            </Array>
          </mxGeometry>
        </mxCell>
        <mxCell id="8me5OHyM-P-EAsXOWn_f-23" style="edgeStyle=orthogonalEdgeStyle;rounded=0;orthogonalLoop=1;jettySize=auto;html=1;exitX=0.5;exitY=0;exitDx=0;exitDy=0;exitPerimeter=0;" edge="1" parent="8me5OHyM-P-EAsXOWn_f-3" source="8me5OHyM-P-EAsXOWn_f-24" target="8me5OHyM-P-EAsXOWn_f-11">
          <mxGeometry relative="1" as="geometry" />
        </mxCell>
        <mxCell id="8me5OHyM-P-EAsXOWn_f-24" value="Bashion Host&lt;div&gt;&lt;br&gt;&lt;/div&gt;" style="sketch=0;points=[[0,0,0],[0.25,0,0],[0.5,0,0],[0.75,0,0],[1,0,0],[0,1,0],[0.25,1,0],[0.5,1,0],[0.75,1,0],[1,1,0],[0,0.25,0],[0,0.5,0],[0,0.75,0],[1,0.25,0],[1,0.5,0],[1,0.75,0]];outlineConnect=0;fontColor=#232F3E;fillColor=#ED7100;strokeColor=#ffffff;dashed=0;verticalLabelPosition=bottom;verticalAlign=top;align=center;html=1;fontSize=12;fontStyle=0;aspect=fixed;shape=mxgraph.aws4.resourceIcon;resIcon=mxgraph.aws4.ec2;" vertex="1" parent="8me5OHyM-P-EAsXOWn_f-3">
          <mxGeometry x="161" y="476" width="78" height="78" as="geometry" />
        </mxCell>
        <mxCell id="8me5OHyM-P-EAsXOWn_f-25" style="edgeStyle=orthogonalEdgeStyle;rounded=0;orthogonalLoop=1;jettySize=auto;html=1;" edge="1" parent="8me5OHyM-P-EAsXOWn_f-3" source="8me5OHyM-P-EAsXOWn_f-18" target="8me5OHyM-P-EAsXOWn_f-20">
          <mxGeometry relative="1" as="geometry" />
        </mxCell>
        <mxCell id="8me5OHyM-P-EAsXOWn_f-26" style="edgeStyle=orthogonalEdgeStyle;rounded=0;orthogonalLoop=1;jettySize=auto;html=1;exitX=0.5;exitY=1;exitDx=0;exitDy=0;exitPerimeter=0;" edge="1" parent="1" source="8me5OHyM-P-EAsXOWn_f-2" target="8me5OHyM-P-EAsXOWn_f-13">
          <mxGeometry relative="1" as="geometry" />
        </mxCell>
        <mxCell id="8me5OHyM-P-EAsXOWn_f-27" style="edgeStyle=orthogonalEdgeStyle;rounded=0;orthogonalLoop=1;jettySize=auto;html=1;" edge="1" parent="1" source="8me5OHyM-P-EAsXOWn_f-28" target="8me5OHyM-P-EAsXOWn_f-2">
          <mxGeometry relative="1" as="geometry" />
        </mxCell>
        <mxCell id="8me5OHyM-P-EAsXOWn_f-28" value="Users&lt;div&gt;&lt;br&gt;&lt;/div&gt;" style="outlineConnect=0;dashed=0;verticalLabelPosition=bottom;verticalAlign=top;align=center;html=1;shape=mxgraph.aws3.users;fillColor=#D2D3D3;gradientColor=none;" vertex="1" parent="1">
          <mxGeometry x="120" y="175" width="120" height="120" as="geometry" />
        </mxCell>
      </root>
    </mxGraphModel>
  </diagram>
</mxfile>
